<svg width="24" height="24" fill="none" xmlns="http://www.w3.org/2000/svg"><mask id="a" style="mask-type:alpha" maskUnits="userSpaceOnUse" x="0" y="0" width="24" height="24"><path fill="#A525C5" d="M0 0H24V24H0z"/></mask><g mask="url(#a)"><path d="M12.6 12L8.7 8.1a.948.948 0 0 1-.275-.7c0-.283.092-.517.275-.7a.948.948 0 0 1 .7-.275c.283 0 .517.092.7.275l4.6 4.6c.1.1.17.208.213.325.041.117.062.242.062.375s-.02.258-.063.375a.877.877 0 0 1-.212.325l-4.6 4.6a.948.948 0 0 1-.7.275.948.948 0 0 1-.7-.275.948.948 0 0 1-.275-.7c0-.283.092-.517.275-.7l3.9-3.9z" fill="#17171C"/></g></svg>